<svg data-v-0dd9719b="" version="1.0" xmlns="http://www.w3.org/2000/svg" xmlns:xlink="http://www.w3.org/1999/xlink" width="100%" height="100%" viewBox="0 0 340.000000 250.000000" preserveAspectRatio="xMidYMid meet" color-interpolation-filters="sRGB" style="margin: auto;"> <rect data-v-0dd9719b="" x="0" y="0" width="100%" height="100%" fill="#ffffff" fill-opacity="1" class="background"></rect> <rect data-v-0dd9719b="" x="0" y="0" width="100%" height="100%" fill="url(#watermark)" fill-opacity="1" class="watermarklayer"></rect> <g data-v-0dd9719b="" fill="#3a533d" class="icon-text-wrapper icon-svg-group iconsvg" transform="translate(54.66999816894531,94.99939918518066)"><g class="iconsvg-imagesvg" transform="translate(0,0)"><g><rect fill="#3a533d" fill-opacity="0" stroke-width="2" x="0" y="0" width="59.99999999999955" height="60.001200024000035" class="image-rect"></rect> <svg x="0" y="0" width="59.99999999999955" height="60.001200024000035" filtersec="colorsb4167564814" class="image-svg-svg primary" style="overflow: visible;"><svg version="1.1" id="cube" xmlns="http://www.w3.org/2000/svg" xmlns:xlink="http://www.w3.org/1999/xlink" x="0px" y="0px" viewBox="9.789997100830078 7.599999904632568 490.46002197265625 490.47003173828125" enable-background="new 0 0 511 507.62" xml:space="preserve">
<path fill="#3a533d" d="M372.43,83.05L290.7,222.44c-10.87,18.55-4.65,42.4,13.89,53.27l131.08,76.86
	c18.54,10.87,42.41,4.53,49.78-15.66c9.58-26.22,14.8-54.53,14.8-84.07c0-70.68-29.9-134.37-77.74-179.13
	C406.82,59.02,383.3,64.5,372.43,83.05z"></path>
<path fill="#3a533d" d="M273.91,212.6l81.96-139.78c10.87-18.55,4.58-42.49-15.57-49.97C313.74,12.99,285.01,7.6,255.02,7.6
	c-74.3,0-140.88,33.05-185.84,85.24c-14.03,16.29-7.94,40.19,10.6,51.06l140.86,82.59C239.19,237.36,263.04,231.14,273.91,212.6z"></path>
<path fill="#b4dd7b" d="M147.17,428.76l77.51-132.21c10.87-18.55,4.65-42.4-13.89-53.27L70.21,160.86
	c-18.54-10.88-41.86-4.23-48.49,16.22c-7.74,23.86-11.93,49.32-11.93,75.76c0,74.76,33.46,141.7,86.21,186.68
	C112.36,453.47,136.3,447.3,147.17,428.76z"></path>
<path fill="#b4dd7b" d="M241.48,306.39l-77.29,131.83c-10.87,18.55-4.19,41.78,16.3,48.31c23.51,7.49,48.55,11.54,74.54,11.54
	c71.14,0,135.2-30.29,179.99-78.68c14.61-15.78,9.05-39.35-9.5-50.22L294.75,292.5C276.2,281.63,252.35,287.85,241.48,306.39z"></path>
</svg></svg> <!----></g></g> <g transform="translate(67,6.299350738525391)"><g data-gra="path-name" fill-rule="" class="tp-name iconsvg-namesvg" transform="translate(0,0)"><g transform="scale(1)"><g><path d="M2.52-15.84L7.51-15.84 6.03-2.83 1.03-2.83 2.52-15.84ZM39.02-15.84L40.45-2.83 35.5-2.83 34.02-15.84 39.02-15.84ZM40.45-31L40.45-27.4 33.25-27.4 32.67-26.1 26.19-26.1 26.77-27.4 14.58-27.4 15.16-26.1 8.69-26.1 8.1-27.4 0.9-27.4 0.9-31 6.52-31 5.89-32.45 12.38-32.45 13-31 28.35-31 28.98-32.45 35.46-32.45 34.83-31 40.45-31ZM27.81-17.73L17.77-17.73 12.73 0 6.75 0 11.79-17.73 2.88-17.73 2.88-22.18 13.05-22.18 13.72-24.43 19.71-24.43 19.08-22.18 33.57-22.18 33.57-4.95Q33.57-3.92 33.16-3.01 32.76-2.11 32.09-1.44 31.41-0.77 30.51-0.38 29.61 0 28.62 0L28.62 0 20.79 0 22.59-4.46 26.37-4.46Q27-4.46 27.4-4.86 27.81-5.26 27.81-5.85L27.81-5.85 27.81-17.73ZM63.09-0.85L63.09-31.63 68.22-31.63 68.22-0.85 63.09-0.85ZM42.34-7.69L44.19-25.65 48.82-25.65 46.94-7.69 42.34-7.69ZM61.29-25.65L62.5-7.83 57.87-7.83 56.66-25.65 61.29-25.65ZM74.66-25.65L75.87-7.83 71.23-7.83 70.02-25.65 74.66-25.65ZM76.19-32.31L81.81-32.31 81.81-1.17 76.19-1.17 76.19-32.31ZM49.55-11.07L49.55-32.31 55.17-32.31 55.17-11.07 52.74-0.14 47.11-0.14 49.55-11.07ZM117.04-30.33L121.72-30.33 123.25-30.33 123.25-5.8Q123.25-4.77 122.87-3.87 122.49-2.97 121.81-2.29 121.14-1.62 120.24-1.24 119.34-0.85 118.3-0.85L118.3-0.85 111.55-0.85 105.34-0.85 105.3-0.85 105.3-30.29 105.34-30.29 105.34-30.33 117.04-30.33ZM117.04-6.71L117.04-25.88 111.55-25.88 111.55-5.31 115.6-5.31Q116.19-5.31 116.62-5.71 117.04-6.12 117.04-6.71L117.04-6.71ZM90.99-0.14L83.74-0.14 89.28-13.09 83.74-13.09 83.74-17.55 90.72-17.55 90.72-25.61 83.74-25.61 86.72-32.31 93.38-32.31 92.38-30.06 103.23-30.06 103.23-25.61 97.52-25.61 97.52-17.55 103.72-17.55 103.72-13.09 96.57-13.09 95.31-10.21 100.3-10.21 104.31-0.14 97.52-0.14 94.41-8.05 90.99-0.14ZM155.38-5.71L153.09-10.44 159.34-10.44 161.64-5.71 155.38-5.71ZM150.34-10.93L150.34-5.89Q150.34-5.26 150.75-4.86 151.15-4.46 151.74-4.46L151.74-4.46 164.56-4.46 162.58 0 150.34 0 148.32 0Q147.46 0 146.7-0.34 145.94-0.67 145.35-1.24 144.76-1.8 144.43-2.56 144.09-3.33 144.09-4.23L144.09-4.23 144.09-10.44 133.88 0 125.19 0 138.1-12.46 126.36-12.46 126.36-24.39 152.55-24.39 154.17-26.28 126.72-26.28 128.7-32.45 133.83-32.45 133.38-30.73 160.47-30.73 162.85-30.73 158.31-24.39 163.26-24.39 163.26-17.41Q163.26-16.38 162.85-15.48 162.45-14.58 161.77-13.9 161.1-13.23 160.2-12.85 159.3-12.46 158.31-12.46L158.31-12.46 146.11-12.46 144.58-10.93 150.34-10.93ZM157-18.36L157-19.93 147.1-19.93 147.1-16.92 155.61-16.92Q156.19-16.92 156.6-17.32 157-17.73 157-18.36L157-18.36ZM132.61-16.92L140.58-16.92 140.58-19.93 132.61-19.93 132.61-16.92Z" transform="translate(-0.9000000357627869, 32.45000076293945)"></path></g> <!----> <!----> <!----> <!----> <!----> <!----> <!----></g></g> <g data-gra="path-slogan" fill-rule="" class="tp-slogan iconsvg-slogansvg" fill="#3a533d" transform="translate(5,38.45000076293945)"><rect x="0" height="1" y="3.9750003814697266" width="19.11917495727539"></rect> <rect height="1" y="3.9750003814697266" width="19.11917495727539" x="134.54082870483398"></rect> <g transform="translate(22.11917495727539,0)"><g transform="scale(1)"><path d="M7.17-6.09L7.17-6.09L6.09-6.09Q6-7.73 3.94-7.83L3.94-7.83Q2.02-7.78 2.02-6.33L2.02-6.33Q2.02-5.39 3.05-5.25L3.05-5.25L5.48-4.69Q7.41-4.22 7.41-2.34L7.41-2.34Q7.36 0.05 4.03 0.14L4.03 0.14Q2.20 0.14 1.45-0.61L1.45-0.61Q0.52-1.31 0.56-2.77L0.56-2.77L1.69-2.77Q1.73-0.80 4.03-0.75L4.03-0.75Q6.28-0.80 6.33-2.20L6.33-2.20Q6.52-3.38 4.45-3.75L4.45-3.75L2.67-4.13Q0.84-4.64 0.84-6.19L0.84-6.19Q0.98-8.72 3.84-8.81L3.84-8.81Q7.08-8.81 7.17-6.09ZM16.53-3.19L16.53-8.58L17.70-8.58L17.70-3.05Q17.56 0.05 14.19 0.14L14.19 0.14Q11.05 0.05 10.91-2.86L10.91-2.86L10.91-8.58L12.08-8.58L12.08-3.19Q12.13-0.84 14.23-0.80L14.23-0.80Q16.53-0.84 16.53-3.19L16.53-3.19ZM22.33-1.03L27.63-1.03L27.63 0L20.88 0L20.88-0.94L26.13-7.59L21.25-7.59L21.25-8.58L27.63-8.58L27.63-7.59L22.33-1.03ZM31.92-5.06L36.42-5.06L36.42-8.58L37.59-8.58L37.59 0L36.42 0L36.42-3.98L31.92-3.98L31.92 0L30.75 0L30.75-8.58L31.92-8.58L31.92-5.06ZM48.17-4.27L48.17-4.27Q47.98-7.64 45.17-7.83L45.17-7.83Q42.31-7.69 42.17-4.27L42.17-4.27Q42.31-0.94 45.17-0.80L45.17-0.80Q47.98-0.98 48.17-4.27ZM49.34-4.27L49.34-4.27Q49.06 0 45.17 0.14L45.17 0.14Q41.23 0 40.95-4.27L40.95-4.27Q41.19-8.72 45.17-8.81L45.17-8.81Q49.06-8.67 49.34-4.27ZM58.38-3.19L58.38-8.58L59.55-8.58L59.55-3.05Q59.41 0.05 56.03 0.14L56.03 0.14Q52.89 0.05 52.75-2.86L52.75-2.86L52.75-8.58L53.92-8.58L53.92-3.19Q53.97-0.84 56.08-0.80L56.08-0.80Q58.38-0.84 58.38-3.19L58.38-3.19ZM69.50-1.03L74.80-1.03L74.80 0L68.05 0L68.05-0.94L73.30-7.59L68.42-7.59L68.42-8.58L74.80-8.58L74.80-7.59L69.50-1.03ZM79.09-5.06L83.59-5.06L83.59-8.58L84.77-8.58L84.77 0L83.59 0L83.59-3.98L79.09-3.98L79.09 0L77.92 0L77.92-8.58L79.09-8.58L79.09-5.06ZM88.73-8.58L89.91-8.58L89.91 0L88.73 0L88.73-8.58ZM96.08-7.59L93.17-7.59L93.17-8.58L100.11-8.58L100.11-7.59L97.20-7.59L97.20 0L96.08 0L96.08-7.59ZM108.81-3.19L108.81-8.58L109.98-8.58L109.98-3.05Q109.84 0.05 106.47 0.14L106.47 0.14Q103.33 0.05 103.19-2.86L103.19-2.86L103.19-8.58L104.36-8.58L104.36-3.19Q104.41-0.84 106.52-0.80L106.52-0.80Q108.81-0.84 108.81-3.19L108.81-3.19Z" transform="translate(-0.5602678571428572, 8.8125)"></path></g></g></g></g></g><defs v-gra="od"></defs></svg>